<?xml version="1.0" encoding="utf-8"?>
<!-- Generator: Adobe Illustrator 18.0.0, SVG Export Plug-In . SVG Version: 6.00 Build 0)  -->
<!DOCTYPE svg PUBLIC "-//W3C//DTD SVG 1.1//EN" "http://www.w3.org/Graphics/SVG/1.1/DTD/svg11.dtd">
<svg version="1.1" id="Ebene_1" xmlns="http://www.w3.org/2000/svg" xmlns:xlink="http://www.w3.org/1999/xlink" x="0px" y="0px"
	 viewBox="0 0 225 100" enable-background="new 0 0 225 100" xml:space="preserve">
<g>
	<path fill="#868686" d="M70.8,35c0.5,0.3,1.3,0.6,2,0.6c1.5,0,2.4-1,2.4-2.4c0-1.3-0.8-2.1-1.9-3c-1.1-0.8-2.7-2.1-2.7-3.9
		c0-2.2,1.5-3.7,3.8-3.7c0.9,0,1.7,0.3,2,0.5l-0.4,1.4c-0.4-0.3-1-0.5-1.7-0.5c-1.4,0-2,1.1-2,2c0,1.4,0.7,2,2.1,2.9
		c1.7,1.2,2.5,2.5,2.5,4.1c0,2.5-1.7,4-4,4c-1,0-2-0.3-2.4-0.6L70.8,35z"/>
	<path fill="#868686" d="M85.8,36.6c-0.4,0.2-1.1,0.4-2,0.4C81,37,79,34.8,79,29.9c0-5.6,2.8-7.4,5-7.4c0.9,0,1.5,0.2,1.8,0.4
		l-0.4,1.4C85.1,24.1,84.8,24,84,24c-1.5,0-3.3,1.5-3.3,5.8s1.6,5.8,3.3,5.8c0.6,0,1.2-0.1,1.5-0.3L85.8,36.6z"/>
	<path fill="#868686" d="M90,22.6v6.1h4v-6.1h1.6v14.2H94v-6.7h-4v6.7h-1.6V22.6H90z"/>
	<path fill="#868686" d="M107.6,30.8c-0.1-1.9-0.2-4-0.1-5.6h-0.1c-0.3,1.6-0.7,3.3-1.1,4.9l-1.8,6.7h-1l-1.7-6.4
		c-0.5-1.8-0.9-3.6-1.2-5.2h-0.1c0,1.7-0.1,3.7-0.2,5.7l-0.3,6h-1.5l0.8-14.2h1.8l1.7,6.5c0.5,1.9,0.8,3.3,1.1,4.9h0.1
		c0.3-1.6,0.6-3,1.1-4.9l1.6-6.5h1.8l0.8,14.2h-1.5L107.6,30.8z"/>
	<path fill="#868686" d="M114,22.6v9.5c0,2.6,0.8,3.4,1.9,3.4c1.2,0,2-0.9,2-3.4v-9.5h1.6v9.3c0,3.7-1.5,5.1-3.6,5.1
		c-2.1,0-3.5-1.4-3.5-4.9v-9.5H114z"/>
	<path fill="#868686" d="M129.1,36.6c-0.4,0.2-1.1,0.4-2,0.4c-2.8,0-4.8-2.2-4.8-7.1c0-5.6,2.8-7.4,5-7.4c0.9,0,1.5,0.2,1.8,0.4
		l-0.4,1.4c-0.3-0.1-0.7-0.3-1.4-0.3c-1.5,0-3.3,1.5-3.3,5.8s1.6,5.8,3.3,5.8c0.6,0,1.2-0.1,1.5-0.3L129.1,36.6z"/>
	<path fill="#868686" d="M131.7,22.6h1.6v6.8h0c0.3-0.6,0.6-1.2,0.9-1.7l2.7-5h1.8l-3.5,6.1l3.6,8.2H137l-2.9-6.9l-0.8,1.4v5.5h-1.6
		V22.6z"/>
	<path fill="#868686" d="M143,36.9l-2.7-14.2h1.7l1.2,6.9c0.3,1.8,0.5,3.4,0.7,5.1h0.1c0.2-1.8,0.5-3.3,0.8-5.2l1.3-6.8h1.4l1.3,6.7
		c0.3,1.7,0.6,3.3,0.8,5.3h0.1c0.2-2,0.5-3.6,0.8-5.2l1.2-6.8h1.6l-2.8,14.2h-1.6l-1.4-6.9c-0.3-1.5-0.5-3.1-0.7-4.7h0
		c-0.2,1.6-0.4,3.1-0.8,4.7l-1.4,6.9H143z"/>
	<path fill="#868686" d="M161,30.1h-3.6v5.3h4.1v1.4h-5.7V22.6h5.4v1.4h-3.8v4.7h3.6V30.1z"/>
	<path fill="#868686" d="M164.1,22.9c0.7-0.2,1.5-0.3,2.3-0.3c1.4,0,2.5,0.3,3.2,1c0.7,0.7,1,1.7,1,2.8c0,1.8-0.8,3-2.3,3.7v0
		c1.1,0.3,1.6,1.3,1.9,3.2c0.3,2,0.6,3.2,0.8,3.6h-1.6c-0.2-0.4-0.5-1.8-0.8-3.5c-0.3-1.9-0.9-2.7-2.3-2.7h-0.6v6.2h-1.6V22.9z
		 M165.7,29.4h0.7c1.6,0,2.6-1.1,2.6-2.9c0-1.6-0.7-2.7-2.4-2.7c-0.3,0-0.6,0-0.8,0.1V29.4z"/>
	<path fill="#868686" d="M173.5,22.6h1.6v6.8h0c0.3-0.6,0.6-1.2,0.9-1.7l2.7-5h1.8l-3.5,6.1l3.6,8.2h-1.8L176,30l-0.8,1.4v5.5h-1.6
		V22.6z"/>
	<path fill="#868686" d="M182.6,35c0.5,0.3,1.3,0.6,2,0.6c1.5,0,2.4-1,2.4-2.4c0-1.3-0.8-2.1-1.9-3c-1.1-0.8-2.7-2.1-2.7-3.9
		c0-2.2,1.5-3.7,3.8-3.7c0.9,0,1.7,0.3,2,0.5l-0.4,1.4c-0.4-0.3-1-0.5-1.7-0.5c-1.4,0-2,1.1-2,2c0,1.4,0.7,2,2.1,2.9
		c1.7,1.2,2.5,2.5,2.5,4.1c0,2.5-1.7,4-4,4c-1,0-2-0.3-2.4-0.6L182.6,35z"/>
	<path fill="#868686" d="M193.1,24.1h-2.6v-1.5h6.8v1.5h-2.6v12.8h-1.6V24.1z"/>
	<path fill="#868686" d="M200.5,32.6l-1,4.3H198l3.3-14.2h1.8l3.2,14.2h-1.6l-1-4.3H200.5z M203.4,31.3l-0.7-3.6
		c-0.2-1-0.4-2.2-0.6-3.3H202c-0.2,1.1-0.4,2.3-0.6,3.3l-0.7,3.6H203.4z"/>
	<path fill="#868686" d="M209.2,24.1h-2.6v-1.5h6.8v1.5h-2.6v12.8h-1.6V24.1z"/>
	<path fill="#868686" d="M217.8,24.1h-2.6v-1.5h6.8v1.5h-2.6v12.8h-1.6V24.1z"/>
</g>
<g>
	<path fill="#868686" d="M40.5,48.8h2.4v9.8h0.1c0.5-0.9,0.9-1.7,1.3-2.5l3.9-7.3h2.6l-5.1,8.8l5.2,11.9h-2.5l-4.2-10l-1.2,2v8h-2.4
		V48.8z"/>
	<path fill="#868686" d="M55.6,63.3l-1.4,6.2h-2.3l4.7-20.7h2.6l4.6,20.7h-2.3l-1.4-6.2H55.6z M59.8,61.4l-1.1-5.3
		c-0.3-1.5-0.6-3.2-0.8-4.7h-0.1c-0.2,1.6-0.6,3.3-0.8,4.7l-1.1,5.3H59.8z"/>
	<path fill="#868686" d="M67,50.9h-3.8v-2.1h9.9v2.1h-3.8v18.6H67V50.9z"/>
	<path fill="#868686" d="M77.8,48.8v8.9h5.8v-8.9H86v20.7h-2.4v-9.7h-5.8v9.7h-2.4V48.8H77.8z"/>
	<path fill="#868686" d="M92.2,63.3l-1.4,6.2h-2.3l4.7-20.7h2.6l4.6,20.7h-2.3l-1.4-6.2H92.2z M96.5,61.4l-1.1-5.3
		c-0.3-1.5-0.6-3.2-0.8-4.7h-0.1c-0.2,1.6-0.6,3.3-0.8,4.7l-1.1,5.3H96.5z"/>
	<path fill="#868686" d="M103.1,49.1c1-0.3,2.2-0.4,3.4-0.4c2.1,0,3.6,0.4,4.7,1.5c1,1,1.4,2.4,1.4,4.1c0,2.6-1.2,4.4-3.3,5.3v0.1
		c1.5,0.5,2.3,1.9,2.8,4.6c0.5,2.9,0.9,4.6,1.2,5.3h-2.4c-0.3-0.6-0.7-2.6-1.1-5.1c-0.5-2.8-1.4-3.9-3.4-3.9h-0.9v9h-2.4V49.1z
		 M105.4,58.7h1c2.3,0,3.8-1.7,3.8-4.1c0-2.4-1-3.9-3.5-3.9c-0.5,0-0.9,0-1.2,0.1V58.7z"/>
	<path fill="#868686" d="M118,48.8v20.7h-2.4V48.8H118z"/>
	<path fill="#868686" d="M121.7,69.5V48.8h2.2l3.8,9.7c0.9,2.2,1.9,5,2.6,7.2h0.1c-0.2-3.3-0.3-5.9-0.3-9.5v-7.4h2.1v20.7h-2.2
		l-3.9-10c-0.8-2.1-1.7-4.5-2.5-7h-0.1c0.2,2.8,0.2,5.4,0.2,9.8v7.2H121.7z"/>
	<path fill="#868686" d="M138.5,63.3l-1.4,6.2h-2.3l4.7-20.7h2.6l4.6,20.7h-2.3l-1.4-6.2H138.5z M142.8,61.4l-1.1-5.3
		c-0.3-1.5-0.6-3.2-0.8-4.7h-0.1c-0.2,1.6-0.6,3.3-0.8,4.7l-1.1,5.3H142.8z"/>
	<path fill="#868686" d="M154.2,49.1c1-0.2,2.2-0.4,3.5-0.4c1.9,0,3.5,0.4,4.6,1.4c0.9,0.8,1.4,2.1,1.4,3.5c0,2.1-1.2,3.8-3.2,4.6
		v0.1c2.4,0.6,3.8,2.6,3.8,5.3c0,1.7-0.6,3.1-1.5,4.1c-1.2,1.3-3.1,1.9-5.5,1.9c-1.5,0-2.5-0.1-3.1-0.2V49.1z M156.6,57.6h1.1
		c1.9,0,3.6-1.5,3.6-3.7c0-1.9-0.9-3.4-3.4-3.4c-0.6,0-1,0.1-1.3,0.2V57.6z M156.6,67.6c0.3,0.1,0.7,0.1,1.2,0.1
		c2.5,0,4.1-1.4,4.1-4.1c0-2.9-2-4.2-4.2-4.2h-1V67.6z"/>
	<path fill="#868686" d="M177.8,59c0,7.8-2.7,10.8-6,10.8c-3.4,0-5.7-3.7-5.7-10.6c0-6.8,2.5-10.6,6.1-10.6
		C175.7,48.6,177.8,52.4,177.8,59z M168.2,45.8c0-0.8,0.6-1.4,1.3-1.4c0.8,0,1.3,0.6,1.3,1.4c0,0.9-0.5,1.4-1.3,1.4
		C168.7,47.2,168.2,46.7,168.2,45.8z M168.6,59.2c0,4.3,0.8,8.5,3.4,8.5c2.7,0,3.4-4.5,3.4-8.6c0-3.9-0.7-8.4-3.4-8.4
		C169.4,50.7,168.6,55,168.6,59.2z M173.1,45.8c0-0.8,0.6-1.4,1.3-1.4c0.8,0,1.3,0.6,1.3,1.4c0,0.9-0.5,1.4-1.3,1.4
		C173.7,47.2,173.1,46.7,173.1,45.8z"/>
	<path fill="#868686" d="M183,48.8v8.9h5.8v-8.9h2.4v20.7h-2.4v-9.7H183v9.7h-2.4V48.8H183z"/>
	<path fill="#868686" d="M207.4,60.6c-0.2-2.7-0.3-5.8-0.2-8.1h-0.1c-0.5,2.3-1,4.8-1.7,7.2l-2.5,9.7h-1.5l-2.4-9.3
		c-0.7-2.6-1.3-5.2-1.7-7.6h-0.1c0,2.4-0.1,5.3-0.2,8.3l-0.4,8.8h-2.1l1.2-20.7h2.5l2.4,9.5c0.7,2.7,1.2,4.8,1.7,7.1h0.1
		c0.4-2.4,0.9-4.3,1.5-7.1l2.3-9.5h2.6l1.2,20.7h-2.2L207.4,60.6z"/>
	<path fill="#868686" d="M220.9,59.7h-5.2v7.8h5.9v2.1h-8.3V48.8h7.9v2.1h-5.5v6.8h5.2V59.7z"/>
</g>
<g>
	<path fill="#868686" d="M47.6,87.2c0-1.7-0.9-2.4-2.5-2.4c-2.8,0-4.6,2.5-4.6,5.4c0,2.3,1.2,4,3.3,4c1,0,1.6-0.3,1.8-1.1l0.3-1.4
		c0.2-1.1,0.2-1.2-1.4-1.3l0.1-0.4h3.7l-0.1,0.4c-0.9,0.1-0.9,0.2-1.1,1.3l-0.2,1.3c-0.1,0.5-0.1,0.9-0.1,1.2c-1,0.2-2,0.6-3.3,0.6
		c-2.7,0-4.5-1.6-4.5-4.4c0-3.5,2.7-6,6.5-6c1.3,0,2.2,0.3,2.7,0.5c0,0.5-0.1,1.3-0.2,2.4L47.6,87.2z"/>
	<path fill="#868686" d="M54.3,92.9c-1.4,1.4-2.5,1.7-3.2,1.7c-0.7,0-1.7-0.4-1.7-2.2c0-1.4,0.6-3.1,1.8-4c0.7-0.5,1.5-0.9,2.1-0.9
		c0.8,0,1.4,0.6,1.4,1.2c0,1.5-2.6,2.3-4.1,2.7c0,0.2,0,0.3,0,0.5c0,0.8,0.3,1.7,1.2,1.7c0.6,0,1.5-0.4,2.2-1.2L54.3,92.9z
		 M52.1,88.4c-0.4,0.2-1.2,0.9-1.4,2.7c2.2-0.6,2.8-1.3,2.8-2c0-0.5-0.3-0.8-0.8-0.8C52.5,88.2,52.3,88.3,52.1,88.4z"/>
	<path fill="#868686" d="M55,93.5c0-0.3,0.2-0.5,0.4-0.6c0.2-0.1,0.3-0.1,0.4,0c0.4,0.6,1,0.9,1.5,0.9c0.6,0,1-0.4,1-0.9
		c0-0.4-0.2-0.7-0.9-1.3c-0.7-0.5-1.3-1.1-1.3-1.9c0-0.5,0.2-1,0.8-1.5c0.5-0.4,1.2-0.7,1.7-0.7c0.7,0,1.2,0.5,1.2,0.9
		c0,0.3-0.2,0.5-0.4,0.6c-0.2,0.1-0.2,0.1-0.3-0.1c-0.3-0.4-0.7-0.7-1.2-0.7c-0.4,0-0.8,0.3-0.8,0.9c0,0.6,0.4,0.9,1,1.4
		c0.9,0.7,1.3,1.1,1.3,1.8c0,1.2-1.5,2.3-2.8,2.3C55.8,94.7,55,94.1,55,93.5z"/>
	<path fill="#868686" d="M64.8,88.3l-1.5,0.1l-0.9,4.2c-0.2,0.8-0.1,0.9,0.1,0.9c0.3,0,1-0.5,1.4-0.9l0.2,0.3
		c-0.5,0.6-1.7,1.6-2.5,1.6c-0.4,0-0.7-0.4-0.3-2l0.9-4.2H61l0-0.1l0.4-0.5h0.9l0.4-1.5l1.2-1l0.1,0.1l-0.5,2.3h1.8L64.8,88.3z"/>
	<path fill="#868686" d="M71.9,93.1c-0.8,1-1.9,1.6-2.2,1.6c-0.3,0-0.5-0.2-0.3-1.4l0.3-1.5h0c-0.6,0.8-1.3,1.6-2,2.1
		c-0.5,0.4-1,0.7-1.4,0.7c-0.4,0-0.9-0.5-0.9-1.7c0-1.6,0.7-3.2,1.8-4.2c0.8-0.6,1.9-1.2,2.9-1.2c0.3,0,0.6,0,1,0.1
		c0.2,0,0.4,0.1,0.6,0.1l0,0.1c-0.2,1-0.7,3-1.1,5c-0.1,0.5-0.1,0.7,0,0.7c0.1,0,0.7-0.4,1.1-0.8L71.9,93.1z M69.9,90.7
		c0.2-0.6,0.4-1.7,0.5-2.2c-0.2-0.1-0.6-0.2-1-0.2c-0.4,0-0.8,0.1-1.1,0.3c-1,0.8-1.7,2.6-1.7,4.1c0,0.7,0.2,1,0.4,1
		C67.6,93.7,69.3,91.7,69.9,90.7z"/>
	<path fill="#868686" d="M75.8,93c-0.8,1-1.9,1.6-2.4,1.6c-0.3,0-0.5-0.4-0.2-1.9c0.5-2.5,1.1-5,1.6-7.6c0.2-0.7,0.1-0.8-0.6-0.8
		l-0.4,0l0.1-0.4c1.2-0.1,2.1-0.5,2.3-0.5c0.1,0,0.2,0.1,0.1,0.5c-0.6,3-1.3,5.9-1.9,9c-0.1,0.4,0,0.5,0.1,0.5
		c0.2,0,0.8-0.4,1.2-0.8L75.8,93z"/>
	<path fill="#868686" d="M80.8,88.3l-1.5,0.1l-0.9,4.2c-0.2,0.8-0.1,0.9,0.1,0.9c0.3,0,1-0.5,1.4-0.9l0.2,0.3
		c-0.5,0.6-1.7,1.6-2.5,1.6c-0.4,0-0.7-0.4-0.3-2l0.9-4.2H77l0-0.1l0.4-0.5h0.9l0.4-1.5l1.2-1l0.1,0.1l-0.5,2.3h1.8L80.8,88.3z"/>
	<path fill="#868686" d="M86.3,92.9c-1.4,1.4-2.5,1.7-3.2,1.7c-0.7,0-1.7-0.4-1.7-2.2c0-1.4,0.6-3.1,1.8-4c0.7-0.5,1.5-0.9,2.1-0.9
		c0.8,0,1.4,0.6,1.4,1.2c0,1.5-2.6,2.3-4.1,2.7c0,0.2,0,0.3,0,0.5c0,0.8,0.3,1.7,1.2,1.7c0.6,0,1.5-0.4,2.2-1.2L86.3,92.9z
		 M84.2,88.4c-0.4,0.2-1.2,0.9-1.4,2.7c2.2-0.6,2.8-1.3,2.8-2c0-0.5-0.3-0.8-0.8-0.8C84.6,88.2,84.3,88.3,84.2,88.4z"/>
	<path fill="#868686" d="M94.6,93.2c-0.9,1-1.8,1.5-2.2,1.5c-0.4,0-0.5-0.4-0.2-1.6c0.3-1.2,0.6-2.3,0.8-3.4
		c0.2-0.9,0.1-1.1-0.1-1.1c-0.7,0-2.5,1.9-3.2,3.2c-0.2,0.8-0.4,1.7-0.6,2.6c-0.4,0.1-0.8,0.2-1.1,0.3l-0.1-0.1
		c0.4-1.7,0.9-3.5,1.2-5.2c0.1-0.5,0.1-0.6,0-0.6c-0.1,0-0.6,0.3-1,0.7L87.9,89c0.8-0.9,1.7-1.5,2.2-1.5c0.4,0,0.4,0.5,0.1,1.7
		l-0.3,1.3h0c1-1.4,2.2-2.3,2.8-2.7c0.4-0.2,0.7-0.3,1-0.3c0.4,0,0.8,0.2,0.3,2.2c-0.2,1-0.5,2.1-0.8,3.2c-0.1,0.4-0.1,0.6,0,0.6
		c0.1,0,0.6-0.3,1-0.7L94.6,93.2z"/>
</g>
<g>
	<path fill="#868686" d="M110.5,93.2c-0.8,0.9-1.8,1.5-2.2,1.5s-0.5-0.5-0.2-1.6l0.8-3.5c0.2-0.8,0.1-1-0.2-1
		c-0.7,0-2.6,2.2-3.1,3.2c-0.2,0.7-0.4,1.8-0.6,2.6c-0.4,0-0.8,0.2-1.1,0.3l-0.1-0.1c0.4-1.6,0.8-3.1,1.1-4.6c0.2-1,0.2-1.4-0.1-1.4
		c-0.7,0-2.6,2.2-3.1,3.2c-0.2,0.7-0.4,1.7-0.6,2.6c-0.4,0-0.8,0.2-1.1,0.3l-0.1-0.1c0.5-1.7,0.9-3.5,1.3-5.2c0.1-0.6,0.1-0.7,0-0.7
		c-0.2,0-0.7,0.4-1.1,0.8l-0.2-0.4c0.9-0.9,1.8-1.5,2.2-1.5c0.4,0,0.4,0.6,0.1,1.9l-0.3,1.1h0c1-1.5,2.1-2.3,2.7-2.7
		c0.4-0.2,0.6-0.3,1-0.3c0.4,0,0.8,0.4,0.4,2.3l-0.1,0.6h0c1-1.5,2.1-2.3,2.8-2.7c0.4-0.2,0.6-0.3,0.9-0.3c0.3,0,0.8,0.2,0.3,2.2
		l-0.8,3.2c-0.1,0.4-0.1,0.5,0,0.5c0.1,0,0.6-0.3,1-0.7L110.5,93.2z"/>
	<path fill="#868686" d="M114.6,93.1c-0.5,0.6-1.7,1.5-2.2,1.5c-0.3,0-0.5-0.2-0.2-1.5l1-3.9c0.1-0.3,0.1-0.5,0-0.5
		c-0.1,0-0.6,0.3-1,0.7l-0.2-0.4c0.8-0.8,1.9-1.5,2.3-1.5c0.3,0,0.3,0.5,0.2,1.2l-1.1,4.2c-0.1,0.4-0.1,0.5,0,0.5
		c0.2,0,0.7-0.4,1.1-0.7L114.6,93.1z M115,85.3c0,0.5-0.4,0.9-0.8,0.9c-0.4,0-0.6-0.3-0.6-0.7c0-0.4,0.3-0.9,0.8-0.9
		C114.8,84.6,115,85,115,85.3z"/>
	<path fill="#868686" d="M119.9,88.3l-1.5,0.1l-0.9,4.2c-0.2,0.8-0.1,0.9,0.1,0.9c0.3,0,1-0.5,1.4-0.9l0.2,0.3
		c-0.5,0.6-1.7,1.6-2.5,1.6c-0.4,0-0.7-0.4-0.3-2l0.9-4.2h-1.1l0-0.1l0.4-0.5h0.9l0.4-1.5l1.2-1l0.1,0.1l-0.5,2.3h1.8L119.9,88.3z"
		/>
	<path fill="#868686" d="M132.3,84.5c0,0.3-0.2,1.4-0.3,2.3l-0.4,0c0-0.6,0-1-0.2-1.4c-0.2-0.4-0.4-0.5-1.5-0.5h-1.2
		c-0.5,0-0.6,0.1-0.7,0.6l-0.6,3.3h1.5c1.3,0,1.4-0.1,1.8-1.1h0.4l-0.6,2.9h-0.4c0-1.1,0-1.2-1.3-1.2h-1.5l-0.5,2.7
		c-0.2,0.9-0.2,1.3,0.1,1.5c0.2,0.2,0.7,0.2,1.5,0.2c1.1,0,1.6-0.1,2-0.5c0.4-0.4,0.7-0.9,1-1.5l0.4,0.2c-0.2,0.4-0.7,1.9-1,2.4
		h-7.2l0.1-0.4c1.2-0.1,1.4-0.2,1.6-1.4l1.2-6.3c0.2-1.2,0.2-1.3-1.1-1.4l0.1-0.4H132.3z"/>
	<path fill="#868686" d="M139.8,93.1c-0.8,1-1.8,1.6-2.3,1.6c-0.3,0-0.5-0.2-0.3-1.4l0.3-1.3l0,0c-0.7,0.9-1.5,1.6-2,2
		c-0.6,0.5-1.1,0.7-1.5,0.7c-0.5,0-1-0.6-1-1.8c0-1.4,0.7-3.1,1.8-4.1c0.7-0.6,2-1.2,2.7-1.2c0.2,0,0.5,0,0.9,0.2l0.5-2.5
		c0.1-0.7,0.1-0.8-0.6-0.8h-0.5l0-0.4c1.3-0.2,2.1-0.5,2.3-0.5c0.1,0,0.2,0.1,0.1,0.4c-0.7,3.1-1.4,6-1.9,9c-0.1,0.4,0,0.5,0.1,0.5
		c0.2,0,0.7-0.3,1.1-0.8L139.8,93.1z M137.8,90.8l0.5-2.2c-0.2-0.2-0.8-0.4-1.2-0.4c-0.5,0-0.8,0.1-1.1,0.3c-1,0.7-1.6,2.7-1.6,4
		c0,0.8,0.2,1.1,0.5,1.1C135.6,93.7,137.3,91.8,137.8,90.8z"/>
	<path fill="#868686" d="M145.9,92.9c-1.4,1.4-2.5,1.7-3.2,1.7c-0.7,0-1.7-0.4-1.7-2.2c0-1.4,0.6-3.1,1.8-4c0.7-0.5,1.5-0.9,2.1-0.9
		c0.8,0,1.4,0.6,1.4,1.2c0,1.5-2.6,2.3-4.1,2.7c0,0.2,0,0.3,0,0.5c0,0.8,0.3,1.7,1.2,1.7c0.6,0,1.5-0.4,2.2-1.2L145.9,92.9z
		 M143.7,88.4c-0.4,0.2-1.2,0.9-1.4,2.7c2.2-0.6,2.8-1.3,2.8-2c0-0.5-0.3-0.8-0.8-0.8C144.2,88.2,143.9,88.3,143.7,88.4z"/>
	<path fill="#868686" d="M149.9,93c-0.8,1-1.9,1.6-2.4,1.6c-0.3,0-0.5-0.4-0.2-1.9c0.5-2.5,1.1-5,1.6-7.6c0.2-0.7,0.1-0.8-0.6-0.8
		l-0.4,0l0.1-0.4c1.2-0.1,2.1-0.5,2.3-0.5c0.1,0,0.2,0.1,0.1,0.5c-0.6,3-1.3,5.9-1.9,9c-0.1,0.4,0,0.5,0.1,0.5
		c0.2,0,0.8-0.4,1.2-0.8L149.9,93z"/>
	<path fill="#868686" d="M161.6,93.2c-0.8,0.9-1.8,1.5-2.2,1.5c-0.4,0-0.5-0.5-0.2-1.6l0.8-3.5c0.2-0.8,0.1-1-0.2-1
		c-0.7,0-2.6,2.2-3.1,3.2c-0.2,0.7-0.4,1.8-0.6,2.6c-0.4,0-0.8,0.2-1.1,0.3l-0.1-0.1c0.4-1.6,0.8-3.1,1.1-4.6c0.2-1,0.2-1.4-0.1-1.4
		c-0.7,0-2.6,2.2-3.1,3.2c-0.2,0.7-0.4,1.7-0.6,2.6c-0.4,0-0.8,0.2-1.1,0.3l-0.1-0.1c0.5-1.7,0.9-3.5,1.3-5.2c0.1-0.6,0.1-0.7,0-0.7
		c-0.2,0-0.7,0.4-1.1,0.8l-0.2-0.4c0.9-0.9,1.8-1.5,2.2-1.5c0.4,0,0.4,0.6,0.1,1.9l-0.3,1.1h0c1-1.5,2.1-2.3,2.7-2.7
		c0.4-0.2,0.6-0.3,1-0.3c0.4,0,0.8,0.4,0.4,2.3l-0.1,0.6h0c1-1.5,2.1-2.3,2.8-2.7c0.4-0.2,0.6-0.3,0.9-0.3c0.3,0,0.8,0.2,0.3,2.2
		l-0.8,3.2c-0.1,0.4-0.1,0.5,0,0.5c0.1,0,0.6-0.3,1-0.7L161.6,93.2z"/>
	<path fill="#868686" d="M167.9,92.9c-1.4,1.4-2.5,1.7-3.2,1.7c-0.7,0-1.7-0.4-1.7-2.2c0-1.4,0.6-3.1,1.8-4c0.7-0.5,1.5-0.9,2.1-0.9
		c0.8,0,1.4,0.6,1.4,1.2c0,1.5-2.6,2.3-4.1,2.7c0,0.2,0,0.3,0,0.5c0,0.8,0.3,1.7,1.2,1.7c0.6,0,1.5-0.4,2.2-1.2L167.9,92.9z
		 M165.7,88.4c-0.4,0.2-1.2,0.9-1.4,2.7c2.2-0.6,2.8-1.3,2.8-2c0-0.5-0.3-0.8-0.8-0.8C166.1,88.2,165.9,88.3,165.7,88.4z"/>
	<path fill="#868686" d="M173.2,88.3l-1.5,0.1l-0.9,4.2c-0.2,0.8-0.1,0.9,0.1,0.9c0.3,0,1-0.5,1.4-0.9l0.2,0.3
		c-0.5,0.6-1.7,1.6-2.5,1.6c-0.4,0-0.7-0.4-0.3-2l0.9-4.2h-1.1l0-0.1l0.4-0.5h0.9l0.4-1.5l1.2-1l0.1,0.1l-0.5,2.3h1.8L173.2,88.3z"
		/>
	<path fill="#868686" d="M180.3,93.1c-0.8,1-1.9,1.6-2.2,1.6c-0.3,0-0.5-0.2-0.3-1.4l0.3-1.5h0c-0.6,0.8-1.3,1.6-2,2.1
		c-0.5,0.4-1,0.7-1.4,0.7c-0.4,0-0.9-0.5-0.9-1.7c0-1.6,0.7-3.2,1.8-4.2c0.8-0.6,1.9-1.2,2.9-1.2c0.3,0,0.6,0,1,0.1
		c0.2,0,0.4,0.1,0.6,0.1l0,0.1c-0.2,1-0.7,3-1.1,5c-0.1,0.5-0.1,0.7,0,0.7c0.1,0,0.7-0.4,1.1-0.8L180.3,93.1z M178.3,90.7
		c0.2-0.6,0.4-1.7,0.5-2.2c-0.2-0.1-0.6-0.2-1-0.2c-0.4,0-0.8,0.1-1.1,0.3c-1,0.8-1.7,2.6-1.7,4.1c0,0.7,0.2,1,0.4,1
		C176,93.7,177.8,91.7,178.3,90.7z"/>
	<path fill="#868686" d="M184.2,93c-0.8,1-1.9,1.6-2.4,1.6c-0.3,0-0.5-0.4-0.2-1.9c0.5-2.5,1.1-5,1.6-7.6c0.2-0.7,0.1-0.8-0.6-0.8
		l-0.4,0l0.1-0.4c1.2-0.1,2.1-0.5,2.3-0.5c0.1,0,0.2,0.1,0.1,0.5c-0.6,3-1.3,5.9-1.9,9c-0.1,0.4,0,0.5,0.1,0.5
		c0.2,0,0.8-0.4,1.2-0.8L184.2,93z"/>
	<path fill="#868686" d="M188.1,93c-0.8,1-1.9,1.6-2.4,1.6c-0.3,0-0.5-0.4-0.2-1.9c0.5-2.5,1.1-5,1.6-7.6c0.2-0.7,0.1-0.8-0.6-0.8
		l-0.4,0l0.1-0.4c1.2-0.1,2.1-0.5,2.3-0.5c0.1,0,0.2,0.1,0.1,0.5c-0.6,3-1.3,5.9-1.9,9c-0.1,0.4,0,0.5,0.1,0.5
		c0.2,0,0.8-0.4,1.2-0.8L188.1,93z"/>
</g>
<g>
	<path fill="#FBBD00" d="M32.5,69.6C14.6,69.6,0,55.1,0,37.2C0,19.3,14.6,4.7,32.5,4.7s32.5,14.6,32.5,32.5h-5.8
		c0-14.7-12-26.7-26.7-26.7S5.8,22.4,5.8,37.2s12,26.7,26.7,26.7V69.6z"/>
</g>
<g>
	<path fill="#00569E" d="M32.5,15c4.1,0,7.5-3.3,7.5-7.5c0-4.1-3.3-7.5-7.5-7.5S25,3.3,25,7.5C25,11.6,28.3,15,32.5,15"/>
</g>
<g>
</g>
<g>
</g>
<g>
</g>
<g>
</g>
<g>
</g>
<g>
</g>
<g>
</g>
<g>
</g>
<g>
</g>
<g>
</g>
<g>
</g>
<g>
</g>
<g>
</g>
<g>
</g>
<g>
</g>
</svg>
